<svg width="94" height="29" viewBox="0 0 94 29" fill="none" xmlns="http://www.w3.org/2000/svg">
<path d="M57.6691 5.70449C59.0904 5.70449 60.2426 4.53942 60.2426 3.10224C60.2426 1.66506 59.0904 0.5 57.6691 0.5C56.2479 0.5 55.0957 1.66506 55.0957 3.10224C55.0957 4.53942 56.2479 5.70449 57.6691 5.70449Z" fill="#59DEBE"/>
<path d="M48.6226 7.35498H44.9639V22.985H48.6226V15.8773C48.6226 15.1963 48.7849 14.5182 49.0674 13.8897C49.5165 12.8908 50.2901 12.0774 51.2598 11.5849C52.1395 11.1382 53.1325 10.9799 54.1008 11.1278V7.38521C52.5595 7.25372 51.0041 7.55324 49.6092 8.26159C49.2658 8.43611 48.9365 8.63301 48.6226 8.85091V7.35498Z" fill="#752FFF"/>
<path fill-rule="evenodd" clip-rule="evenodd" d="M39.5017 22.9846H43.1605V7.35455H39.5017V7.78352C38.1117 6.79922 36.4192 6.22168 34.5935 6.22168C29.8619 6.22168 26.0264 10.1002 26.0264 14.8846C26.0264 19.6691 29.8619 23.5476 34.5935 23.5476C36.4192 23.5476 38.1117 22.9701 39.5017 21.9858V22.9846ZM34.5935 19.7296C37.2395 19.7296 39.3847 17.5603 39.3847 14.8846C39.3847 12.209 37.2395 10.0397 34.5935 10.0397C31.9474 10.0397 29.8021 12.209 29.8021 14.8846C29.8021 17.5603 31.9474 19.7296 34.5935 19.7296Z" fill="#752FFF"/>
<path fill-rule="evenodd" clip-rule="evenodd" d="M77.8363 14.8846C77.8363 19.6691 74.0007 23.5476 69.2693 23.5476C64.5377 23.5476 60.7021 19.6691 60.7021 14.8846C60.7021 10.1002 64.5377 6.22168 69.2693 6.22168C74.0007 6.22168 77.8363 10.1002 77.8363 14.8846ZM69.2691 19.7296C71.9153 19.7296 74.0605 17.5603 74.0605 14.8846C74.0605 12.209 71.9153 10.0397 69.2691 10.0397C66.6232 10.0397 64.4779 12.209 64.4779 14.8846C64.4779 17.5603 66.6232 19.7296 69.2691 19.7296Z" fill="#752FFF"/>
<path d="M59.4866 7.35498H55.8279V23.6867C55.8279 23.9821 55.7118 24.2652 55.5053 24.4743C55.2986 24.6831 55.0186 24.8004 54.7265 24.8004C54.4343 24.8004 54.1541 24.6831 53.9476 24.4743C53.7411 24.2652 53.625 23.9821 53.625 23.6867H49.9663C49.9663 24.9633 50.4679 26.1876 51.3606 27.0903C52.2532 27.9929 53.4639 28.5001 54.7265 28.5001C55.989 28.5001 57.1997 27.9929 58.0923 27.0903C58.9801 26.1927 59.481 24.977 59.4866 23.7082C59.4866 23.7034 59.4866 23.6986 59.4866 23.6939V23.6867V7.35498Z" fill="#752FFF"/>
<path d="M87.3082 6.43799C85.6244 6.43799 83.9604 7.13387 82.7926 8.27238V7.38848H79.1418V22.9847H82.7926V13.2982C82.7926 11.2828 84.4085 9.6491 86.4015 9.6491C88.3946 9.6491 90.0103 11.2828 90.0103 13.2982V22.9847H93.3334V12.1068C93.3334 8.97594 90.4043 6.43799 87.3082 6.43799Z" fill="#752FFF"/>
<path d="M18.9477 6.65983C18.688 6.62772 18.4233 6.61133 18.155 6.61133H17.4504C15.2196 6.61133 13.2516 7.75103 12.0855 9.4862C11.2026 7.7775 9.43348 6.61133 7.39496 6.61133C5.93637 6.61133 4.61558 7.20833 3.65873 8.17402V7.37466H0V22.9847H3.65873V13.8584C3.65873 13.6181 3.68288 13.3836 3.72864 13.157C4.04951 11.5714 5.43683 10.3788 7.09977 10.3788C8.76946 10.3788 10.1615 11.5815 10.4748 13.1768C10.518 13.3973 10.5406 13.6251 10.5406 13.8584V22.9847H14.3618V13.7112C14.3618 13.2511 14.454 12.8128 14.6207 12.414C15.1211 11.218 16.2923 10.3788 17.6573 10.3788C18.1153 10.3788 18.5515 10.4732 18.9477 10.644V6.65983Z" fill="#752FFF"/>
<path d="M20.9531 17.9275V22.9849H24.6372V13.1659C24.6372 10.5629 23.1365 8.31425 20.9624 7.25635V17.9275H20.9531Z" fill="#752FFF"/>
</svg>
