<svg width="122" height="53" viewBox="0 0 122 53" fill="none" xmlns="http://www.w3.org/2000/svg">
<g clip-path="url(#clip0_48_1874)">
<path d="M8.77952 5.21322V19.3358L8.7509 19.3072L0.345215 27.7497V5.21898C0.345215 2.88148 2.23093 0.980469 4.56236 0.980469C5.72807 0.980469 6.78521 1.45141 7.54521 2.22675C8.31093 2.98486 8.77952 4.04735 8.77952 5.21322Z" fill="#22407C"/>
<path d="M8.74492 28.209L8.77354 28.2377V38.9086C8.77354 41.2461 6.88778 43.1472 4.55064 43.1472C2.22493 43.1472 0.333496 41.2518 0.333496 38.9086V36.6573L8.74492 28.209Z" fill="#457ABD"/>
<path d="M41.2137 5.21262V10.7778L32.7737 19.2606V5.21262C32.7737 2.87512 34.6594 0.974121 36.9908 0.974121C38.1565 0.974121 39.2137 1.44506 39.9737 2.2204C40.7452 2.98425 41.2137 4.04674 41.2137 5.21262Z" fill="#22407C"/>
<path d="M32.7737 28.18L41.2137 19.6973V38.9141C41.2137 41.2516 39.328 43.1526 36.9908 43.1526C34.6651 43.1526 32.7737 41.2573 32.7737 38.9141V28.18Z" fill="#457ABD"/>
<path d="M24.9962 14.0857V27.278L20.739 31.5567L16.5562 27.3526V14.0915C16.5562 11.754 18.4419 9.85303 20.7733 9.85303C21.9391 9.85303 22.9962 10.324 23.7562 11.0993C24.5276 11.8574 24.9962 12.9256 24.9962 14.0857Z" fill="#22407C"/>
<path d="M20.739 40.4648L24.9962 36.186V47.7874C24.9962 50.1249 23.1104 52.0259 20.7733 52.0259C18.4476 52.0259 16.5562 50.1306 16.5562 47.7874V36.255L20.739 40.4648Z" fill="#457ABD"/>
<path d="M66.8648 10.0312H67.9333V20.2024H65.9562V14.4879L63.0419 18.4564H62.2876L59.3562 14.5109V20.1967H57.3962V10.0254H58.4476L62.6705 15.7801L66.8648 10.0312Z" fill="#22407C"/>
<path d="M73.6763 20.3748C72.3849 20.3748 71.3505 20.0071 70.5677 19.2663C69.7849 18.5311 69.3962 17.5376 69.3962 16.2855C69.3962 15.0565 69.7905 14.0744 70.5734 13.3335C71.3619 12.5984 72.3905 12.2251 73.6705 12.2251C74.9506 12.2251 75.9791 12.5926 76.7563 13.3335C77.5334 14.0744 77.922 15.0565 77.922 16.2855C77.922 17.5318 77.5334 18.5254 76.7563 19.2663C75.9848 20.0014 74.9562 20.3748 73.6763 20.3748ZM73.6763 18.5714C74.3391 18.5714 74.8763 18.3646 75.2877 17.9454C75.6991 17.5261 75.9049 16.9747 75.9049 16.2855C75.9049 15.6079 75.6991 15.0622 75.2877 14.6487C74.8763 14.2352 74.3391 14.0285 73.6763 14.0285C73.002 14.0285 72.4591 14.2352 72.0477 14.6487C71.6362 15.0622 71.4305 15.6079 71.4305 16.2855C71.4305 16.969 71.6362 17.5261 72.0477 17.9454C72.4591 18.3646 73.002 18.5714 73.6763 18.5714Z" fill="#22407C"/>
<path d="M79.3906 20.2024V9.37646H81.3506V20.2024H79.3906Z" fill="#22407C"/>
<path d="M85.082 11.0876C84.8475 11.323 84.568 11.4436 84.2358 11.4436C83.9046 11.4436 83.6191 11.323 83.3848 11.0876C83.1505 10.8521 83.0305 10.5649 83.0305 10.2319C83.0305 9.89874 83.1505 9.61156 83.3848 9.37605C83.6191 9.14063 83.9046 9.02002 84.2358 9.02002C84.568 9.02002 84.8475 9.14063 85.082 9.37605C85.3107 9.61156 85.4308 9.89874 85.4308 10.2319C85.4308 10.5649 85.3165 10.8464 85.082 11.0876ZM83.2248 20.2021V12.4028H85.213V20.2021H83.2248Z" fill="#22407C"/>
<path d="M92.4938 12.4028H94.585L91.4023 20.2883C91.1736 20.8683 90.9166 21.3451 90.6362 21.7184C90.3508 22.0917 90.0479 22.3616 89.7275 22.5282C89.4079 22.6947 89.1108 22.8038 88.8421 22.8613C88.5734 22.9187 88.2588 22.9474 87.8991 22.9474C87.3959 22.9474 86.9737 22.89 86.6366 22.7751V21.0751C87.0538 21.2072 87.4251 21.2761 87.7564 21.2761C88.5617 21.2761 89.145 20.9258 89.5047 20.2194L86.019 12.4028H88.2079L90.4134 17.8474L92.4938 12.4028Z" fill="#22407C"/>
<path d="M98.5045 20.375C97.3679 20.375 96.4592 20.0074 95.7732 19.2666C95.0931 18.5314 94.751 17.5378 94.751 16.2858C94.751 15.0511 95.0881 14.0574 95.7624 13.3223C96.4366 12.5815 97.322 12.2139 98.4194 12.2139C99.4308 12.2139 100.23 12.501 100.808 13.0696V12.3976H102.739V20.197H100.836V19.4388C100.328 20.0649 99.5509 20.375 98.5045 20.375ZM98.9334 18.6003C99.8246 18.6003 100.459 18.2558 100.836 17.5723V14.9878C100.647 14.672 100.374 14.4307 100.013 14.2527C99.6536 14.0747 99.2764 13.9885 98.8875 13.9885C98.2533 13.9885 97.7393 14.1895 97.3504 14.5973C96.9624 15.0051 96.7679 15.568 96.7679 16.2916C96.7679 17.0037 96.9624 17.5723 97.3504 17.9858C97.7451 18.3936 98.2708 18.6003 98.9334 18.6003Z" fill="#22407C"/>
<path d="M61.1963 37.1677C60.3334 37.1677 59.5848 37.093 58.9449 36.9437C58.3048 36.7944 57.6191 36.5532 56.8877 36.22L57.6534 34.4799C58.8763 35.0714 60.0249 35.3643 61.0934 35.3643C61.6649 35.3643 62.0991 35.2609 62.4077 35.0599C62.7162 34.8532 62.8705 34.5545 62.8705 34.1524C62.8705 33.7791 62.7048 33.5035 62.3791 33.314C62.0534 33.1302 61.5048 32.9636 60.7391 32.8201C60.1334 32.6937 59.6248 32.5616 59.2134 32.418C58.802 32.2745 58.4191 32.0849 58.0706 31.8552C57.722 31.6197 57.4592 31.3268 57.2877 30.9765C57.1163 30.6262 57.0306 30.2069 57.0306 29.7187C57.0306 28.7768 57.3505 28.0302 57.9962 27.4788C58.6419 26.9275 59.5791 26.6519 60.8134 26.6519C62.2705 26.6519 63.5391 26.916 64.6077 27.4386L63.7677 29.1386C62.7906 28.7022 61.8077 28.4839 60.8248 28.4839C60.2763 28.4839 59.8534 28.5873 59.5505 28.7998C59.2534 29.0065 59.1048 29.2765 59.1048 29.5981C59.1048 29.9714 59.2877 30.2414 59.6591 30.4193C60.0305 30.5974 60.6648 30.7812 61.562 30.9822C62.1106 31.0971 62.5734 31.2177 62.9391 31.3555C63.3105 31.4876 63.6591 31.6657 63.9906 31.8897C64.3219 32.1136 64.5677 32.4008 64.7277 32.7569C64.8877 33.1129 64.9677 33.5207 64.9677 33.9974C64.9677 35.0426 64.6477 35.8352 64.0077 36.3694C63.3791 36.8977 62.4363 37.1677 61.1963 37.1677Z" fill="#22407C"/>
<path d="M69.0132 37.1504C68.1618 37.1504 67.5446 36.9436 67.1617 36.5244C66.7789 36.1051 66.5846 35.4504 66.5846 34.5545V30.9247H65.4761V29.1673H66.5846V26.1406H68.5161V29.1673H70.8075V30.9247H68.5161V34.227C68.5161 34.6751 68.5904 34.9909 68.7389 35.1862C68.8875 35.3757 69.1503 35.4734 69.5389 35.4734C69.9846 35.4734 70.4018 35.3872 70.7903 35.2149V36.9436C70.3161 37.0814 69.7218 37.1504 69.0132 37.1504Z" fill="#22407C"/>
<path d="M74.7847 37.139C72.8246 37.139 71.8418 36.0421 71.8418 33.8367V29.1674H73.8018V33.337C73.8018 34.6866 74.3218 35.3643 75.3675 35.3643C76.076 35.3643 76.6818 35.0657 77.1732 34.4627V29.1616H79.1333V36.9609H77.2704V36.1627C76.6075 36.8117 75.779 37.139 74.7847 37.139Z" fill="#22407C"/>
<path d="M84.219 37.1393C83.0818 37.1393 82.1732 36.7718 81.4874 36.0309C80.8075 35.2957 80.4646 34.3022 80.4646 33.0502C80.4646 31.8153 80.8017 30.8218 81.476 30.0866C82.1503 29.3458 83.0361 28.9781 84.1331 28.9781C85.1445 28.9781 85.9447 29.2653 86.5214 29.834V26.1353H88.4532V36.9612H86.5506V36.2032C86.0415 36.8292 85.2646 37.1393 84.219 37.1393ZM84.6471 35.3647C85.5392 35.3647 86.1734 35.02 86.5506 34.3367V31.7522C86.362 31.4363 86.0874 31.1951 85.7278 31.017C85.3673 30.839 84.9901 30.7529 84.602 30.7529C83.9678 30.7529 83.4531 30.9539 83.0646 31.3616C82.6761 31.7694 82.4817 32.3322 82.4817 33.0559C82.4817 33.768 82.6761 34.3367 83.0646 34.7501C83.4589 35.1579 83.9845 35.3647 84.6471 35.3647Z" fill="#22407C"/>
<path d="M92.1332 27.8527C91.8987 28.0882 91.6191 28.2088 91.2879 28.2088C90.9566 28.2088 90.6703 28.0882 90.4358 27.8527C90.2022 27.6172 90.082 27.3301 90.082 26.9969C90.082 26.6639 90.2022 26.3767 90.4358 26.1412C90.6703 25.9058 90.9566 25.7852 91.2879 25.7852C91.6191 25.7852 91.8987 25.9058 92.1332 26.1412C92.3618 26.3767 92.482 26.6639 92.482 26.9969C92.482 27.3301 92.3618 27.6172 92.1332 27.8527ZM90.2765 36.9672V29.1679H92.265V36.9672H90.2765Z" fill="#22407C"/>
<path d="M99.5442 29.1675H101.636L98.4527 37.0529C98.2241 37.633 97.9671 38.1096 97.6875 38.4829C97.4013 38.8563 97.0984 39.1262 96.7788 39.2928C96.4591 39.4593 96.1612 39.5684 95.8934 39.6259C95.6247 39.6833 95.3101 39.712 94.9504 39.712C94.4472 39.712 94.0241 39.6546 93.687 39.5397V37.8397C94.1042 37.9718 94.4756 38.0408 94.8077 38.0408C95.613 38.0408 96.1963 37.6904 96.5559 36.984L93.0703 29.1675H95.2592L97.4647 34.612L99.5442 29.1675Z" fill="#22407C"/>
<path d="M105.556 37.1392C104.418 37.1392 103.511 36.7716 102.825 36.0307C102.144 35.2956 101.802 34.302 101.802 33.05C101.802 31.8151 102.139 30.8216 102.813 30.0865C103.487 29.3455 104.373 28.978 105.47 28.978C106.481 28.978 107.282 29.2652 107.859 29.8338V29.1618H109.79V36.9611H107.887V36.203C107.373 36.829 106.596 37.1392 105.556 37.1392ZM105.979 35.3645C106.87 35.3645 107.504 35.0199 107.882 34.3365V31.752C107.693 31.4361 107.419 31.1949 107.059 31.0168C106.699 30.8388 106.322 30.7527 105.933 30.7527C105.299 30.7527 104.785 30.9537 104.396 31.3615C104.007 31.7693 103.813 32.332 103.813 33.0558C103.813 33.7679 104.007 34.3365 104.396 34.7499C104.791 35.1577 105.316 35.3645 105.979 35.3645Z" fill="#22407C"/>
<path d="M114.425 37.1677C113.202 37.1677 112.111 36.938 111.145 36.4843L111.768 34.9279C112.534 35.3931 113.402 35.6285 114.368 35.6285C115.265 35.6285 115.717 35.3528 115.717 34.8016C115.717 34.5718 115.596 34.3995 115.362 34.2732C115.127 34.1468 114.671 34.009 113.997 33.8596C113.059 33.6529 112.362 33.3657 111.916 33.0039C111.465 32.642 111.242 32.1137 111.242 31.4188C111.242 30.6377 111.517 30.0404 112.071 29.6326C112.625 29.2249 113.379 29.0181 114.339 29.0181C115.322 29.0181 116.339 29.2249 117.379 29.6326L116.739 31.2063C115.99 30.8043 115.185 30.6089 114.322 30.6089C113.562 30.6089 113.185 30.833 113.185 31.2809C113.185 31.5164 113.293 31.7002 113.522 31.8266C113.745 31.9529 114.19 32.0908 114.865 32.2572C115.842 32.4928 116.556 32.7914 117.019 33.136C117.476 33.4863 117.711 33.9802 117.711 34.6292C117.711 36.312 116.614 37.1677 114.425 37.1677Z" fill="#22407C"/>
<path d="M120.985 27.8527C120.751 28.0882 120.471 28.2088 120.139 28.2088C119.808 28.2088 119.522 28.0882 119.288 27.8527C119.054 27.6172 118.934 27.3301 118.934 26.9969C118.934 26.6639 119.054 26.3767 119.288 26.1412C119.522 25.9058 119.808 25.7852 120.139 25.7852C120.471 25.7852 120.751 25.9058 120.985 26.1412C121.213 26.3767 121.334 26.6639 121.334 26.9969C121.334 27.3301 121.219 27.6172 120.985 27.8527ZM119.128 36.9672V29.1679H121.117V36.9672H119.128Z" fill="#22407C"/>
</g>
<defs>
<clipPath id="clip0_48_1874">
<rect width="121" height="52" fill="white" transform="translate(0.333496 0.5)"/>
</clipPath>
</defs>
</svg>
