<svg width="33" height="32" viewBox="0 0 33 32" fill="none" xmlns="http://www.w3.org/2000/svg">
<path d="M16.37 5.33301C10.4885 5.33301 5.70337 10.1181 5.70337 15.9997C5.70337 21.8808 10.4885 26.6663 16.37 26.6663C22.2512 26.6663 27.0367 21.8808 27.0367 15.9997C27.0367 10.1181 22.252 5.33301 16.37 5.33301ZM19.0227 16.3752H17.2873V22.5605H14.7159C14.7159 22.5605 14.7159 19.1808 14.7159 16.3752H13.4935V14.1891H14.7159V12.7751C14.7159 11.7624 15.1971 10.18 17.311 10.18L19.2165 10.1873V12.3093C19.2165 12.3093 18.0586 12.3093 17.8334 12.3093C17.6083 12.3093 17.2882 12.4219 17.2882 12.9049V14.1895H19.2474L19.0227 16.3752Z" fill="white"/>
</svg>
