<svg width="33" height="32" viewBox="0 0 33 32" fill="none" xmlns="http://www.w3.org/2000/svg">
<path d="M20.7706 7.2002H11.9706C9.55077 7.2002 7.57056 9.17955 7.57056 11.6002V20.4002C7.57056 22.82 9.55077 24.8002 11.9706 24.8002H20.7706C23.1903 24.8002 25.1706 22.82 25.1706 20.4002V11.6002C25.1706 9.17955 23.1903 7.2002 20.7706 7.2002ZM16.3706 19.6667C14.3452 19.6667 12.7038 18.0246 12.7038 16.0002C12.7038 13.9749 14.3452 12.3335 16.3706 12.3335C18.395 12.3335 20.0373 13.9749 20.0373 16.0002C20.0373 18.0246 18.395 19.6667 16.3706 19.6667ZM21.1373 12.3335C20.5292 12.3335 20.0373 11.8409 20.0373 11.2335C20.0373 10.6261 20.5292 10.1335 21.1373 10.1335C21.7454 10.1335 22.2373 10.6261 22.2373 11.2335C22.2373 11.8409 21.7454 12.3335 21.1373 12.3335Z" fill="white"/>
</svg>
