<svg width="33" height="32" viewBox="0 0 33 32" fill="none" xmlns="http://www.w3.org/2000/svg">
<path d="M6.51756 15.6297C11.7789 13.4564 15.2873 12.0236 17.0427 11.3314C22.0548 9.3549 23.0962 9.01157 23.775 9.00011C23.9243 8.99774 24.2582 9.03282 24.4744 9.19917C24.657 9.33963 24.7072 9.52938 24.7313 9.66256C24.7553 9.79573 24.7852 10.0991 24.7614 10.3362C24.4898 13.0418 23.3146 19.6077 22.7167 22.6381C22.4637 23.9204 21.9656 24.3503 21.4833 24.3924C20.4352 24.4838 19.6394 23.7357 18.6242 23.1048C17.0358 22.1176 16.1384 21.5031 14.5966 20.5398C12.8147 19.4265 13.9698 18.8146 14.9853 17.8146C15.2511 17.5529 19.8689 13.5707 19.9583 13.2094C19.9694 13.1642 19.9798 12.9958 19.8743 12.9069C19.7688 12.818 19.613 12.8484 19.5006 12.8726C19.3413 12.9069 16.8037 14.497 11.8879 17.6431C11.1676 18.112 10.5152 18.3405 9.93071 18.3285C9.2863 18.3153 8.04673 17.9831 7.12524 17.6991C5.99499 17.3507 5.09669 17.1666 5.17491 16.575C5.21566 16.2669 5.66321 15.9518 6.51756 15.6297Z" fill="white"/>
</svg>
