<svg width="33" height="32" viewBox="0 0 33 32" fill="none" xmlns="http://www.w3.org/2000/svg">
<path d="M28.6356 9.84294C28.3412 8.73927 27.4738 7.87006 26.3723 7.57508C24.3759 7.03906 16.3706 7.03906 16.3706 7.03906C16.3706 7.03906 8.36526 7.03906 6.36881 7.57508C5.26738 7.8701 4.39992 8.73927 4.10549 9.84294C3.57056 11.8434 3.57056 16.0172 3.57056 16.0172C3.57056 16.0172 3.57056 20.1909 4.10549 22.1914C4.39992 23.2951 5.26738 24.1281 6.36881 24.4231C8.36526 24.9591 16.3706 24.9591 16.3706 24.9591C16.3706 24.9591 24.3759 24.9591 26.3723 24.4231C27.4738 24.1281 28.3412 23.2951 28.6356 22.1914C29.1706 20.1909 29.1706 16.0172 29.1706 16.0172C29.1706 16.0172 29.1706 11.8434 28.6356 9.84294ZM13.7524 19.8066V12.2277L20.4433 16.0173L13.7524 19.8066Z" fill="white"/>
</svg>
