<svg width="29" height="45" viewBox="0 0 29 45" fill="none" xmlns="http://www.w3.org/2000/svg">
<path d="M25.8641 42.5115C27.5507 41.9522 28.5723 41.4788 28.4909 41.1328C28.4094 40.7869 27.2798 40.7568 25.4912 40.8943C24.602 40.9652 23.5485 41.0905 22.372 41.2459C21.8412 41.331 21.2783 41.42 20.6933 41.5173C21.3913 40.8503 22.028 40.1224 22.5961 39.3423C24.3646 36.8873 25.6277 34.1075 26.312 31.1642C27.4749 26.338 27.2087 21.282 25.5456 16.6102C23.7171 11.5275 20.3943 7.11585 16.0106 3.95052C11.9489 1.05889 7.58466 -0.200943 4.48508 0.0258729C3.2665 0.0800058 2.07619 0.413473 1.00653 1.00042C0.266875 1.44165 -0.0384327 1.80942 0.00413863 1.87697C0.0906043 2.10373 1.67178 0.98135 4.54883 1.141C7.42589 1.30065 11.3599 2.73292 14.9489 5.55344C18.7852 8.61441 21.6494 12.7188 23.1964 17.372C23.9221 19.5921 24.3124 21.9083 24.3544 24.2446C24.4305 29.0131 23.1144 33.7039 20.5664 37.7453C19.9759 38.6658 19.4946 39.3437 19.1091 39.8761L18.9136 38.8782L18.346 35.6261C18.0152 33.7666 17.7499 32.5859 17.4439 32.5769C17.1378 32.5679 16.8581 33.7303 16.7894 35.6667C16.763 36.8033 16.8036 37.9405 16.9111 39.0721C16.9728 39.7188 17.0529 40.392 17.1635 41.0788C17.2184 41.4432 17.2713 41.7582 17.3502 42.1638C17.3804 42.5066 17.4856 42.8384 17.6586 43.1358C17.8316 43.4333 18.068 43.689 18.3513 43.885C18.6324 44.0583 18.958 44.1466 19.2888 44.1391C19.454 44.1335 19.6186 44.1155 19.7811 44.0854L20.1456 44.0051L21.0912 43.7953C21.7164 43.6491 22.3167 43.5039 22.8849 43.3627C24.0186 43.0728 25.0355 42.7856 25.9155 42.4919" fill="#072333"/>
</svg>
