<svg width="20" height="20" viewBox="0 0 20 20" fill="none" xmlns="http://www.w3.org/2000/svg">
<path d="M7.49992 9.16643C7.49992 9.82947 7.76331 10.4654 8.23215 10.9342C8.70099 11.403 9.33688 11.6664 9.99992 11.6664C10.663 11.6664 11.2988 11.403 11.7677 10.9342C12.2365 10.4654 12.4999 9.82947 12.4999 9.16643C12.4999 8.50338 12.2365 7.8675 11.7677 7.39866C11.2988 6.92982 10.663 6.66643 9.99992 6.66643C9.33688 6.66643 8.70099 6.92982 8.23215 7.39866C7.76331 7.8675 7.49992 8.50338 7.49992 9.16643Z" stroke="#76A5DB" stroke-width="1.4" stroke-linecap="round" stroke-linejoin="round"/>
<path d="M14.7141 13.8806L11.1783 17.4164C10.8657 17.7286 10.4421 17.904 10.0003 17.904C9.5586 17.904 9.13493 17.7286 8.82242 17.4164L5.28576 13.8806C4.35344 12.9482 3.71853 11.7603 3.46133 10.4671C3.20412 9.17395 3.33616 7.83352 3.84076 6.61536C4.34535 5.39721 5.19984 4.35604 6.29616 3.62351C7.39248 2.89098 8.68139 2.5 9.99992 2.5C11.3184 2.5 12.6074 2.89098 13.7037 3.62351C14.8 4.35604 15.6545 5.39721 16.1591 6.61536C16.6637 7.83352 16.7957 9.17395 16.5385 10.4671C16.2813 11.7603 15.6464 12.9482 14.7141 13.8806Z" stroke="#76A5DB" stroke-width="1.4" stroke-linecap="round" stroke-linejoin="round"/>
</svg>
