<svg width="20" height="21" viewBox="0 0 20 21" fill="none" xmlns="http://www.w3.org/2000/svg">
<path d="M3 8.0752H17M3 13.0752H17M9.58333 3.0752C8.17945 5.32487 7.43517 7.92342 7.43517 10.5752C7.43517 13.227 8.17945 15.8255 9.58333 18.0752M10.4167 3.0752C11.8205 5.32487 12.5648 7.92342 12.5648 10.5752C12.5648 13.227 11.8205 15.8255 10.4167 18.0752M2.5 10.5752C2.5 11.5601 2.69399 12.5354 3.0709 13.4453C3.44781 14.3553 4.00026 15.1821 4.6967 15.8785C5.39314 16.5749 6.21993 17.1274 7.12987 17.5043C8.03982 17.8812 9.01509 18.0752 10 18.0752C10.9849 18.0752 11.9602 17.8812 12.8701 17.5043C13.7801 17.1274 14.6069 16.5749 15.3033 15.8785C15.9997 15.1821 16.5522 14.3553 16.9291 13.4453C17.306 12.5354 17.5 11.5601 17.5 10.5752C17.5 8.58607 16.7098 6.67842 15.3033 5.27189C13.8968 3.86537 11.9891 3.0752 10 3.0752C8.01088 3.0752 6.10322 3.86537 4.6967 5.27189C3.29018 6.67842 2.5 8.58607 2.5 10.5752Z" stroke="#171717" stroke-width="1.5" stroke-linecap="round" stroke-linejoin="round"/>
</svg>
